<svg width="151" height="27" viewBox="0 0 151 27" fill="none" xmlns="http://www.w3.org/2000/svg">
<path d="M0 23.2069V0H8.4705C10.0932 0 11.526 0.319068 12.7703 0.957204C14.0147 1.59534 15.0038 2.46594 15.7407 3.57052C16.4761 4.67359 17.0276 5.90732 17.3953 7.27019C17.763 8.63307 17.9468 10.116 17.9468 11.7174C17.9468 15.0494 17.1248 17.7979 15.4794 19.9615C13.8354 22.1251 11.4226 23.2069 8.24107 23.2069H0ZM0.454292 22.7845H8.27602C11.0884 22.7845 13.3234 21.7999 14.978 19.8308C16.6326 17.8617 17.4606 15.1573 17.4606 11.7174C17.4606 8.27754 16.666 5.53963 15.0752 3.50519C13.4859 1.47227 11.295 0.454292 8.50392 0.454292H0.454292V22.7845Z" fill="#044D5E"/>
<path d="M34.891 14.6054H20.5785C20.5998 17.1154 21.2485 19.1437 22.5263 20.6904C23.8026 22.2372 25.5559 23.0105 27.7849 23.0105C29.3422 23.0105 30.6838 22.6109 31.8097 21.8102C32.934 21.0095 33.7028 19.8411 34.1146 18.305H34.6008C34.2756 19.7773 33.519 21.005 32.3293 21.9895C31.1396 22.9741 29.6248 23.4663 27.7849 23.4663C25.3615 23.4663 23.4729 22.6383 22.1206 20.9837C20.7684 19.3291 20.0923 17.1913 20.0923 14.5735C20.0923 12.1941 20.7745 10.2022 22.1374 8.60232C23.5002 7.0009 25.328 6.2002 27.6223 6.2002C29.3529 6.2002 30.7811 6.66512 31.9069 7.5965C33.7682 9.02471 34.7633 11.3615 34.8925 14.6069L34.891 14.6054ZM34.4032 14.1511C34.23 11.6198 33.4992 9.73729 32.2123 8.50356C30.9254 7.26983 29.3939 6.65297 27.6193 6.65297C25.6927 6.65297 24.0594 7.32909 22.7178 8.68133C21.3762 10.0336 20.662 11.8568 20.5754 14.1495H34.4017L34.4032 14.1511Z" fill="#044D5E"/>
<path d="M37.9418 6.42647V9.60651H38.0071C38.5039 8.67666 39.2621 7.88203 40.2786 7.2211C41.295 6.56169 42.5941 6.23047 44.1727 6.23047C45.9473 6.23047 47.2829 6.6954 48.1808 7.62677C49.0788 8.55815 49.527 9.74781 49.527 11.1973V23.2064H49.0408V11.2307C49.0408 9.75997 48.6078 8.63412 47.7432 7.85468C46.8772 7.07524 45.6769 6.68628 44.1408 6.68628C42.3449 6.68628 40.862 7.19527 39.6936 8.21173C38.5252 9.22971 37.9418 10.3647 37.9418 11.6197V23.2064H37.4556V6.42647H37.9418Z" fill="#044D5E"/>
<path d="M51.6055 6.88146V6.42717H53.877V1.13672H54.3632V6.42717H58.5506V6.88146H54.3632V20.7077C54.3632 21.4659 54.547 22.0281 54.9147 22.3958C55.2824 22.7635 55.8993 22.9473 56.7653 22.9473C57.4581 22.9473 58.0416 22.8713 58.5187 22.7194H58.5506V23.1737C58.0522 23.3256 57.4581 23.4016 56.7653 23.4016C55.7473 23.4016 55.0135 23.1858 54.5577 22.7528C54.1034 22.3198 53.8755 21.6391 53.8755 20.7077V6.88146H51.604H51.6055Z" fill="#044D5E"/>
<path d="M73.9674 23.336C73.2533 23.336 72.7716 23.1309 72.5225 22.7191C72.2733 22.3089 72.1487 21.7346 72.1487 20.9992V19.4418H72.0834C71.737 20.6315 70.9575 21.5994 69.7466 22.3469C68.5341 23.0929 67.1181 23.4667 65.4954 23.4667C63.8727 23.4667 62.5691 23.061 61.5845 22.2496C60.6 21.4383 60.1077 20.3626 60.1077 19.021C60.1077 18.199 60.2703 17.4955 60.5939 16.9106C60.919 16.3271 61.3946 15.8668 62.0221 15.531C62.6496 15.1952 63.309 14.9354 64.0018 14.7515C64.6947 14.5677 65.5379 14.4112 66.5331 14.2805C68.7408 13.9995 70.2282 13.6698 70.9955 13.2899C71.7628 12.9116 72.1472 12.2461 72.1472 11.2935C72.1472 8.20001 70.4698 6.65177 67.1165 6.65177C63.7633 6.65177 61.7395 8.19849 61.5009 11.2935H61.0147C61.1014 9.77864 61.6255 8.55099 62.5888 7.60898C63.5506 6.66848 65.0608 6.19748 67.1165 6.19748C68.9337 6.19748 70.3072 6.63506 71.2386 7.51174C72.1685 8.38841 72.6349 9.64797 72.6349 11.2935V20.9658C72.6349 21.7012 72.7428 22.2041 72.9601 22.4745C73.1758 22.745 73.5116 22.8802 73.9659 22.8802C74.3336 22.8802 74.6693 22.7936 74.9717 22.6204H75.037V23.0747C74.7772 23.2479 74.4202 23.3345 73.9659 23.3345L73.9674 23.336ZM65.4969 23.0108C67.4007 23.0108 68.9854 22.4806 70.2525 21.4201C71.5182 20.3595 72.1517 18.942 72.1517 17.1689V12.8523C71.8479 13.2853 71.3237 13.6424 70.5777 13.9235C69.8317 14.2046 68.5493 14.4537 66.7321 14.6695C64.6111 14.9293 63.0583 15.373 62.0753 16.0005C61.0907 16.628 60.5984 17.6338 60.5984 19.0195C60.5984 20.4051 61.0907 21.3882 62.0753 22.0385C63.0598 22.6872 64.2009 23.0124 65.4999 23.0124L65.4969 23.0108Z" fill="#044D5E"/>
<path d="M113.435 23.2069V20.0587H113.369C112.915 20.9901 112.173 21.7847 111.146 22.4441C110.118 23.1051 108.837 23.4348 107.301 23.4348C105.549 23.4348 104.233 22.9698 103.358 22.0385C102.481 21.1086 102.044 19.9174 102.044 18.4679V6.42691H102.53V18.436C102.53 19.9083 102.952 21.0326 103.796 21.8121C104.639 22.5915 105.819 22.9805 107.333 22.9805C109.086 22.9805 110.54 22.473 111.698 21.455C112.856 20.4386 113.435 19.3021 113.435 18.0471V6.42691H113.921V23.2069H113.435Z" fill="#044D5E"/>
<path d="M117.979 0.291992V2.10916H117.493V0.291992H117.979ZM117.979 6.42722V23.2072H117.493V6.42722H117.979Z" fill="#044D5E"/>
<path d="M135.019 17.559H135.505C135.289 19.3336 134.575 20.7619 133.363 21.8436C132.15 22.9254 130.474 23.4663 128.332 23.4663C126.016 23.4663 124.151 22.6231 122.733 20.9351C121.315 19.247 120.607 17.1913 120.607 14.7679C120.607 12.3445 121.311 10.3374 122.718 8.68285C124.125 7.02825 125.997 6.2002 128.333 6.2002C130.216 6.2002 131.784 6.6712 133.04 7.61169C134.295 8.5537 135.096 9.84669 135.443 11.4906H134.956C134.589 9.86796 133.805 8.65702 132.603 7.85631C131.403 7.0556 129.979 6.65601 128.335 6.65601C126.301 6.65601 124.587 7.38682 123.19 8.84694C121.794 10.3071 121.097 12.2822 121.097 14.7695C121.097 17.2567 121.8 19.2546 123.206 20.7573C124.612 22.2615 126.322 23.0136 128.333 23.0136C130.345 23.0136 131.795 22.538 132.942 21.5854C134.089 20.6342 134.78 19.2926 135.019 17.5605V17.559Z" fill="#044D5E"/>
<path d="M149.851 23.2069L141.997 13.568L138.492 17.0078V23.2069H138.006V-3.05176e-05H138.492V16.391L148.585 6.42691H149.234L142.321 13.2428L150.402 23.2069H149.851Z" fill="#044D5E"/>
<path d="M87.4169 25.924C80.914 25.924 76.3741 21.0347 76.3741 14.0319C76.3741 7.02909 80.914 2.13976 87.4169 2.13976C93.9198 2.13976 98.4597 7.03061 98.4597 14.0319H98.2485C98.2485 7.15368 93.7937 2.35095 87.4169 2.35095C81.0401 2.35095 76.5838 7.1552 76.5838 14.0319C76.5838 20.9086 81.0386 25.7128 87.4169 25.7128V25.924Z" fill="#044D5E" stroke="#044D5E" stroke-width="0.246026" stroke-miterlimit="10"/>
<path d="M87.3897 5.74215H87.1786V13.9073H87.3897V5.74215Z" fill="#044D5E" stroke="#044D5E" stroke-width="0.246026" stroke-miterlimit="10"/>
<path d="M87.3895 14.0323H87.1783V22.1974H87.3895V14.0323Z" fill="#044D5E" stroke="#044D5E" stroke-width="0.246026" stroke-miterlimit="10"/>
<path d="M95.5045 13.8028H87.3394V14.014H95.5045V13.8028Z" fill="#044D5E" stroke="#044D5E" stroke-width="0.246026" stroke-miterlimit="10"/>
<path d="M87.5321 13.9971L87.3827 14.1464L96.3944 23.1581L96.5438 23.0088L87.5321 13.9971Z" fill="#044D5E" stroke="#044D5E" stroke-width="0.246026" stroke-miterlimit="10"/>
<path d="M87.2834 13.8028H79.1182V14.014H87.2834V13.8028Z" fill="#044D5E" stroke="#044D5E" stroke-width="0.246026" stroke-miterlimit="10"/>
<path d="M87.2832 14.6943C87.2787 14.6214 87.2544 14.3889 87.069 14.1838C86.8472 13.9377 86.557 13.9119 86.4947 13.9073C86.5782 13.8921 86.8077 13.8405 87.0097 13.6414C87.2149 13.4378 87.268 13.2038 87.2817 13.1203C87.3015 13.213 87.3577 13.4165 87.5339 13.6049C87.739 13.8237 87.9806 13.8876 88.0703 13.9073C87.9973 13.9149 87.7497 13.9529 87.5385 14.1641C87.3273 14.3753 87.2908 14.6229 87.2832 14.6959V14.6943Z" fill="#044D5E" stroke="#044D5E" stroke-width="0.246026" stroke-miterlimit="10"/>
</svg>
